<svg width="53" height="52" viewBox="0 0 53 52" fill="none" xmlns="http://www.w3.org/2000/svg">
<path d="M25.5 52C39.5834 52 51 40.3596 51 26C51 11.6405 39.5834 0 25.5 0C11.4166 0 0 11.6405 0 26C0 40.3596 11.4166 52 25.5 52Z" fill="#8F91FC" fill-opacity="0.1"/>
<path d="M39.9717 14.7157C39.9542 14.677 39.9294 14.6428 39.8973 14.613C39.8652 14.5848 39.8288 14.564 39.7895 14.5506C35.0436 12.9593 30.3605 11.5569 25.6147 10.0132C25.5549 9.99536 25.4893 9.99536 25.4296 10.0147C23.4312 10.6586 21.3528 11.3026 19.3428 11.9257C16.6303 12.8121 13.7501 13.5676 11.1017 14.5892C11.0522 14.6443 11.0245 14.7186 11.0259 14.793C11.0259 16.1091 11.0201 18.9377 11.0143 21.9269C11.0055 25.8842 10.9968 29.9769 11.0012 31.4581C10.9822 34.2629 12.4777 36.6052 15.2033 38.0448C16.3562 38.7155 20.7289 41.3255 21.7274 41.8995C22.8424 42.6044 24.125 42.9851 25.4354 43C26.189 42.9866 26.9367 42.8647 27.6567 42.6371C28.9423 42.2653 34.2434 38.891 36.2243 37.7964C38.6453 36.3821 39.9396 34.2124 39.96 31.5265C39.9338 31.2886 40.0518 17.3331 39.9717 14.7127V14.7157Z" fill="#A5B0FF"/>
<path fill-rule="evenodd" clip-rule="evenodd" d="M32.2109 16.875C34.328 16.875 36.0443 18.5912 36.0443 20.7083L36.0443 30.2917C36.0443 32.4088 34.328 34.125 32.2109 34.125L18.7943 34.125C16.6772 34.125 14.9609 32.4088 14.9609 30.2917L14.9609 20.7083C14.9609 18.5912 16.6772 16.875 18.7943 16.875L32.2109 16.875ZM28.8905 25.384C27.0193 27.2548 23.9859 27.2548 22.1147 25.384L16.9441 20.2133C16.9019 20.3713 16.8776 20.537 16.8776 20.7083L16.8776 30.2917C16.8776 31.3502 17.7357 32.2083 18.7943 32.2083L32.2109 32.2083C33.2695 32.2083 34.1276 31.3502 34.1276 30.2917L34.1276 20.7083C34.1276 20.5369 34.1025 20.3714 34.0602 20.2133L28.8905 25.384ZM18.7943 18.7917C18.6229 18.7917 18.4573 18.8159 18.2992 18.8581L23.4699 24.0288C24.5926 25.1512 26.4126 25.1512 27.5353 24.0288L32.7051 18.8581C32.5473 18.8161 32.382 18.7917 32.2109 18.7917L18.7943 18.7917Z" fill="#19236B"/>
<path d="M25.6328 10.0928L25.749 10.1182L25.7568 10.1201C27.6971 10.7519 29.6561 11.3673 31.5527 11.9639C34.1716 12.7867 36.8825 13.64 39.5693 14.5391H39.5703C39.6485 14.5642 39.7206 14.6017 39.7852 14.6484L39.8477 14.6992L39.8525 14.7031H39.8516C39.9103 14.7572 39.9612 14.8188 40.002 14.8887L40.04 14.9609L40.041 14.9648L40.0537 14.9932L40.0811 15.0557V15.1455L40.0967 15.9805C40.1253 18.3822 40.0985 23.7433 40.0811 27.4395C40.0757 28.5039 40.0701 29.496 40.0674 30.2354C40.066 30.605 40.0654 30.9114 40.0654 31.1318C40.0655 31.2421 40.066 31.3307 40.0664 31.3945C40.0666 31.4264 40.0671 31.4514 40.0674 31.4697C40.0678 31.4912 40.0676 31.4963 40.0674 31.4932L40.0684 31.5049V31.5342C40.0475 34.3301 38.6935 36.5912 36.1885 38.0537L36.1816 38.0576C35.5555 38.4032 34.5638 38.9978 33.5049 39.6318L33.5039 39.6309C32.372 40.3096 31.1601 41.0369 30.123 41.625C29.6045 41.9191 29.1268 42.1809 28.7227 42.3848C28.3284 42.5836 27.9845 42.7366 27.7373 42.8086L27.7383 42.8096C27.0999 43.0101 26.4376 43.1314 25.7686 43.1699V43.1885L25.4365 43.1846C24.0704 43.1699 22.738 42.7768 21.5791 42.0459C21.0557 41.7452 19.5727 40.8657 18.1426 40.0186C16.9167 39.291 15.7598 38.6049 15.2383 38.3018L14.9785 38.1602C12.3393 36.6694 10.8729 34.2967 10.8916 31.459C10.887 29.9865 10.8957 25.8387 10.9033 22.1807C10.9095 19.2707 10.9145 16.5157 10.916 15.2354H10.917C10.9141 15.0408 10.9856 14.8528 11.1143 14.7109L11.1348 14.6875L11.1904 14.625L11.2686 14.5957L11.3027 14.583C12.9988 13.9291 14.8111 13.3799 16.5498 12.8535L17.9551 12.4248C18.4247 12.28 18.893 12.133 19.3516 11.9834L19.3564 11.9814C21.3908 11.3521 23.3715 10.7376 25.2842 10.123L25.3984 10.0957C25.4756 10.0831 25.5546 10.0819 25.6328 10.0928ZM25.5234 11.0596C23.6223 11.6706 21.6572 12.2806 19.6455 12.9033C18.7207 13.2051 17.757 13.4988 16.8291 13.7803V13.7793C15.1719 14.2823 13.4728 14.7968 11.8809 15.3994C11.8805 16.7466 11.8765 19.3922 11.8691 22.1826C11.8615 25.8445 11.8528 29.9909 11.8574 31.46V31.4639C11.8426 33.8401 13.0208 35.8539 15.2354 37.1875L15.6924 37.4453L15.7041 37.4512L18.6328 39.1807C19.3489 39.6053 20.0761 40.0368 20.6895 40.3994L22.0635 41.2061L22.0752 41.2129L22.2676 41.3301C23.235 41.8963 24.3241 42.1997 25.4355 42.2119C26.1185 42.1997 26.8004 42.0895 27.457 41.8818L27.4648 41.8799C27.6378 41.8301 27.9343 41.6986 28.334 41.4951C28.7266 41.2953 29.1989 41.0366 29.7148 40.7432C30.747 40.1562 31.9435 39.4384 33.0137 38.7969L34.5205 37.8975C34.9808 37.6252 35.3899 37.3867 35.71 37.21C37.9213 35.9189 39.0855 33.9593 39.1074 31.5283C39.1003 31.3037 39.1049 30.1378 39.1182 27.4316C39.1374 23.3806 39.1643 17.3638 39.1211 15.4102C36.49 14.5298 33.8355 13.6949 31.2646 12.8867C29.3884 12.2965 27.4462 11.6842 25.5234 11.0596Z" fill="#24318D" stroke="#24318D" stroke-width="0.657312"/>
</svg>
