<svg width="24" height="21" viewBox="0 0 24 21" fill="none" xmlns="http://www.w3.org/2000/svg">
<path d="M23.2168 14.0645V17.9951C23.2168 18.7568 22.8084 19.4603 22.1475 19.8389L20.6221 20.7139C19.968 21.0885 19.1639 21.0884 18.5098 20.7139L16.9834 19.8389C16.3225 19.4603 15.9141 18.7568 15.9141 17.9951V14.0645L19.5654 12.9375L23.2168 14.0645Z" fill="#6E6E6E"/>
<path fill-rule="evenodd" clip-rule="evenodd" d="M19.3994 0C21.2772 0 22.7998 1.52262 22.7998 3.40039V11.8682L20.7998 11.3105V3.94434L15.084 9.56152C13.1621 11.4501 10.0848 11.4618 8.14844 9.58789L2 3.6377V16C2 16.7732 2.62719 17.4004 3.40039 17.4004H13.7861V19.4004H3.40039C1.52262 19.4004 5.15368e-07 17.8778 0 16V3.40039C0 1.52262 1.52262 0 3.40039 0H19.3994ZM3.19824 2.01465L9.53906 8.15137C10.6958 9.27074 12.5346 9.26305 13.6826 8.13477L19.8496 2.07422C19.7085 2.02638 19.5567 2 19.3994 2H3.40039C3.3319 2 3.2641 2.00515 3.19824 2.01465Z" fill="#6E6E6E"/>
</svg>
