<svg width="20" height="20" viewBox="0 0 20 20" fill="none" xmlns="http://www.w3.org/2000/svg">
<path d="M6.94238 6.25879H6.24805C6.03362 6.25891 5.85978 6.4331 5.85938 6.64746V13.5918C5.85938 13.8065 6.03337 13.9813 6.24805 13.9814H13.1924C13.407 13.9812 13.582 13.8064 13.582 13.5918V12.8975H15.582V13.5918C15.582 14.911 14.5115 15.9812 13.1924 15.9814H6.24805C4.9288 15.9813 3.85938 14.9111 3.85938 13.5918V6.64746C3.85979 5.32854 4.92905 4.25891 6.24805 4.25879H6.94238V6.25879ZM15.1025 3.56445C15.7503 3.56475 16.2761 4.09049 16.2764 4.73828V8.73145H14.2764V6.97852L11.1221 10.1328L9.70801 8.71875L12.8623 5.56445H11.1094V3.56445H15.1025Z" fill="white"/>
</svg>
