<svg width="172" height="18" viewBox="0 0 172 18" fill="none" xmlns="http://www.w3.org/2000/svg">
<path fill-rule="evenodd" clip-rule="evenodd" d="M44.2235 11.1208L41.9132 9.76277L41.7415 10.0287C41.2149 10.8472 40.4951 11.2625 39.6032 11.2618C38.0752 11.261 36.9233 10.1203 36.9241 8.60841C36.9252 7.09689 38.0779 5.95774 39.6063 5.9585C40.5108 5.95926 41.1903 6.35215 41.7449 7.19606L41.9174 7.45824L44.2385 6.09719L44.038 5.80993C42.9291 4.22089 41.4799 3.44841 39.6078 3.44727C36.0687 3.44575 34.1574 6.10402 34.1563 8.60651C34.1547 11.1094 36.0625 13.7703 39.6017 13.7722C41.405 13.773 43.1062 12.866 44.0422 11.4042L44.2235 11.1208Z" fill="#C01818"/>
<path fill-rule="evenodd" clip-rule="evenodd" d="M50.6709 5.49047L51.9638 8.70198L49.3599 8.70008L50.6709 5.49047ZM44.1094 13.7734L47.3036 13.7753L48.2527 11.4396L53.0466 11.4419L53.9931 13.7787L57.2011 13.7806L51.4787 0.0913636L48.6295 0.0898438L49.3881 1.90459L44.1094 13.7734Z" fill="#C01818"/>
<path fill-rule="evenodd" clip-rule="evenodd" d="M58.5232 13.7824L61.3263 13.7839L61.3298 7.64018L63.1574 7.64171L63.1589 5.06436L61.3313 5.06322L61.3317 3.84503C61.3317 3.32219 61.6859 2.76705 62.3415 2.76743C62.7018 2.76781 62.9192 2.82861 63.1362 2.92056L63.4481 3.05355L64.6127 0.538523L64.277 0.402874C63.7562 0.19161 63.0306 0.115615 62.5247 0.115235C61.2534 0.114475 60.2059 0.525604 59.4938 1.30379C58.8723 1.98317 58.5297 2.92816 58.5289 3.96396L58.5282 5.06132L57.2906 5.06094L57.2891 7.63867L58.527 7.63904L58.5232 13.7824Z" fill="#C01818"/>
<path fill-rule="evenodd" clip-rule="evenodd" d="M20.9375 0.0117188V13.7614L23.983 13.7633L23.9876 5.90241L26.9395 8.07813L29.894 5.90241V13.7667L32.9353 13.7682L32.943 0.0117188L26.9418 4.49766L20.9375 0.0117188Z" fill="#C01818"/>
<path fill-rule="evenodd" clip-rule="evenodd" d="M67.0217 7.36872C67.3878 6.43095 68.1775 5.88341 69.1977 5.88379C70.2286 5.88417 71.0333 6.42069 71.46 7.371L67.0217 7.36872ZM69.4667 3.49414C65.9387 3.49224 64.0328 6.14368 64.0313 8.63857C64.0301 11.1342 65.9326 13.7868 69.4609 13.7887H69.4624H69.4648C71.0826 13.7716 72.5998 13.0421 73.7744 11.727L71.4882 10.4932C70.9021 11.0871 70.1903 11.3994 69.4044 11.3991C68.2533 11.3983 67.2324 10.6391 66.9654 9.64663L74.5891 9.65081L74.5894 8.96573C74.5917 5.19375 71.5954 3.49566 69.4667 3.49414Z" fill="#C01818"/>
<path fill-rule="evenodd" clip-rule="evenodd" d="M78.4827 7.37669C78.8484 6.43854 79.6377 5.891 80.6583 5.89138C81.6896 5.89214 82.4943 6.42828 82.921 7.37897L78.4827 7.37669ZM80.9272 3.50195C77.3989 3.50005 75.4937 6.15111 75.4922 8.646C75.4907 11.1417 77.3927 13.7942 80.9218 13.7965H80.9234H80.9249C82.5435 13.779 84.0607 13.0495 85.2349 11.7344L82.9487 10.501C82.3622 11.0949 81.6509 11.4073 80.8654 11.4069C79.7138 11.4061 78.6929 10.6469 78.4263 9.65445L86.0496 9.65825L86.0504 8.97354C86.0527 5.20157 83.0559 3.50309 80.9272 3.50195Z" fill="#C01818"/>
<path fill-rule="evenodd" clip-rule="evenodd" d="M85.6875 2.96484H86.8744V3.18409H86.4081V4.41481H86.1519V3.18409H85.6875V2.96484Z" fill="#C01818"/>
<path fill-rule="evenodd" clip-rule="evenodd" d="M87.2188 2.96484H87.5798L87.9843 4.1002H87.9885L88.3826 2.96484H88.7398V4.41481H88.4955V3.2958H88.4913L88.0853 4.41481H87.8736L87.4669 3.2958H87.463V4.41481H87.2188V2.96484Z" fill="#C01818"/>
<path fill-rule="evenodd" clip-rule="evenodd" d="M3.08587 11.7403V4.7732L7.52877 6.80566V3.44406L0 0V13.6888L7.52877 17.1359V13.774L3.08587 11.7403Z" fill="#C01818"/>
<path fill-rule="evenodd" clip-rule="evenodd" d="M11.9741 11.7403V4.7732L7.53125 6.80566V3.44406L15.06 0V13.6888L7.53125 17.1359V13.774L11.9741 11.7403Z" fill="#C01818"/>
<path d="M94.0292 1.79297V15.4234" stroke="#C01818" stroke-linecap="square"/>
<path d="M105.086 13.6094H100.234V5.04297H105.086V6.22656H101.641V8.55273H104.869V9.73047H101.641V12.4199H105.086V13.6094ZM114.127 7C114.854 7 115.4 7.1875 115.768 7.5625C116.139 7.9375 116.324 8.53906 116.324 9.36719V13.6094H114.947V9.61328C114.947 9.12109 114.852 8.75 114.66 8.5C114.469 8.25 114.178 8.125 113.787 8.125C113.24 8.125 112.846 8.30078 112.604 8.65234C112.365 9 112.246 9.50586 112.246 10.1699V13.6094H110.869V9.61328C110.869 9.28516 110.826 9.01172 110.74 8.79297C110.658 8.57031 110.531 8.4043 110.359 8.29492C110.188 8.18164 109.971 8.125 109.709 8.125C109.33 8.125 109.027 8.21094 108.801 8.38281C108.578 8.55469 108.418 8.80859 108.32 9.14453C108.223 9.47656 108.174 9.88477 108.174 10.3691V13.6094H106.797V7.12305H107.869L108.062 7.99609H108.139C108.271 7.76953 108.436 7.58398 108.631 7.43945C108.83 7.29102 109.051 7.18164 109.293 7.11133C109.535 7.03711 109.787 7 110.049 7C110.533 7 110.941 7.08594 111.273 7.25781C111.605 7.42578 111.854 7.68359 112.018 8.03125H112.123C112.326 7.67969 112.609 7.41992 112.973 7.25195C113.336 7.08398 113.721 7 114.127 7ZM120.789 7C121.609 7 122.229 7.18164 122.646 7.54492C123.068 7.9082 123.279 8.47461 123.279 9.24414V13.6094H122.301L122.037 12.6895H121.99C121.807 12.9238 121.617 13.1172 121.422 13.2695C121.227 13.4219 121 13.5352 120.742 13.6094C120.488 13.6875 120.178 13.7266 119.811 13.7266C119.424 13.7266 119.078 13.6562 118.773 13.5156C118.469 13.3711 118.229 13.1523 118.053 12.8594C117.877 12.5664 117.789 12.1953 117.789 11.7461C117.789 11.0781 118.037 10.5762 118.533 10.2402C119.033 9.9043 119.787 9.71875 120.795 9.68359L121.92 9.64258V9.30273C121.92 8.85352 121.814 8.5332 121.604 8.3418C121.396 8.15039 121.104 8.05469 120.725 8.05469C120.4 8.05469 120.086 8.10156 119.781 8.19531C119.477 8.28906 119.18 8.4043 118.891 8.54102L118.445 7.56836C118.762 7.40039 119.121 7.26367 119.523 7.1582C119.93 7.05273 120.352 7 120.789 7ZM121.914 10.5098L121.076 10.5391C120.389 10.5625 119.906 10.6797 119.629 10.8906C119.352 11.1016 119.213 11.3906 119.213 11.7578C119.213 12.0781 119.309 12.3125 119.5 12.4609C119.691 12.6055 119.943 12.6777 120.256 12.6777C120.732 12.6777 121.127 12.543 121.439 12.2734C121.756 12 121.914 11.5996 121.914 11.0723V10.5098ZM126.584 7.12305V13.6094H125.207V7.12305H126.584ZM125.904 4.63867C126.115 4.63867 126.297 4.69531 126.449 4.80859C126.605 4.92188 126.684 5.11719 126.684 5.39453C126.684 5.66797 126.605 5.86328 126.449 5.98047C126.297 6.09375 126.115 6.15039 125.904 6.15039C125.686 6.15039 125.5 6.09375 125.348 5.98047C125.199 5.86328 125.125 5.66797 125.125 5.39453C125.125 5.11719 125.199 4.92188 125.348 4.80859C125.5 4.69531 125.686 4.63867 125.904 4.63867ZM129.941 13.6094H128.559V4.49219H129.941V13.6094ZM140.113 11.2773C140.113 11.7852 139.988 12.2227 139.738 12.5898C139.492 12.957 139.137 13.2383 138.672 13.4336C138.211 13.6289 137.66 13.7266 137.02 13.7266C136.707 13.7266 136.408 13.709 136.123 13.6738C135.838 13.6387 135.568 13.5879 135.314 13.5215C135.064 13.4512 134.836 13.3672 134.629 13.2695V11.9453C134.977 12.0977 135.365 12.2363 135.795 12.3613C136.225 12.4824 136.662 12.543 137.107 12.543C137.471 12.543 137.771 12.4961 138.01 12.4023C138.252 12.3047 138.432 12.168 138.549 11.9922C138.666 11.8125 138.725 11.6035 138.725 11.3652C138.725 11.1113 138.656 10.8965 138.52 10.7207C138.383 10.5449 138.176 10.3848 137.898 10.2402C137.625 10.0918 137.281 9.93359 136.867 9.76562C136.586 9.65234 136.316 9.52344 136.059 9.37891C135.805 9.23438 135.578 9.06445 135.379 8.86914C135.18 8.67383 135.021 8.44336 134.904 8.17773C134.791 7.9082 134.734 7.5918 134.734 7.22852C134.734 6.74414 134.85 6.33008 135.08 5.98633C135.314 5.64258 135.643 5.37891 136.064 5.19531C136.49 5.01172 136.986 4.91992 137.553 4.91992C138.002 4.91992 138.424 4.9668 138.818 5.06055C139.217 5.1543 139.607 5.28711 139.99 5.45898L139.545 6.58984C139.193 6.44531 138.852 6.33008 138.52 6.24414C138.191 6.1582 137.855 6.11523 137.512 6.11523C137.215 6.11523 136.963 6.16016 136.756 6.25C136.549 6.33984 136.391 6.4668 136.281 6.63086C136.176 6.79102 136.123 6.98242 136.123 7.20508C136.123 7.45508 136.184 7.66602 136.305 7.83789C136.43 8.00586 136.621 8.16016 136.879 8.30078C137.141 8.44141 137.477 8.59766 137.887 8.76953C138.359 8.96484 138.76 9.16992 139.088 9.38477C139.42 9.59961 139.674 9.85742 139.85 10.1582C140.025 10.4551 140.113 10.8281 140.113 11.2773ZM144.238 13.7266C143.625 13.7266 143.094 13.6074 142.645 13.3691C142.195 13.1309 141.85 12.7656 141.607 12.2734C141.365 11.7812 141.244 11.1562 141.244 10.3984C141.244 9.60938 141.377 8.96484 141.643 8.46484C141.908 7.96484 142.275 7.5957 142.744 7.35742C143.217 7.11914 143.758 7 144.367 7C144.754 7 145.104 7.03906 145.416 7.11719C145.732 7.19141 146 7.2832 146.219 7.39258L145.809 8.49414C145.57 8.39648 145.326 8.31445 145.076 8.24805C144.826 8.18164 144.586 8.14844 144.355 8.14844C143.977 8.14844 143.66 8.23242 143.406 8.40039C143.156 8.56836 142.969 8.81836 142.844 9.15039C142.723 9.48242 142.662 9.89453 142.662 10.3867C142.662 10.8633 142.725 11.2656 142.85 11.5938C142.975 11.918 143.16 12.1641 143.406 12.332C143.652 12.4961 143.955 12.5781 144.314 12.5781C144.67 12.5781 144.988 12.5352 145.27 12.4492C145.551 12.3633 145.816 12.252 146.066 12.1152V13.3105C145.82 13.4512 145.557 13.5547 145.275 13.6211C144.994 13.6914 144.648 13.7266 144.238 13.7266ZM150.133 7C150.953 7 151.572 7.18164 151.99 7.54492C152.412 7.9082 152.623 8.47461 152.623 9.24414V13.6094H151.645L151.381 12.6895H151.334C151.15 12.9238 150.961 13.1172 150.766 13.2695C150.57 13.4219 150.344 13.5352 150.086 13.6094C149.832 13.6875 149.521 13.7266 149.154 13.7266C148.768 13.7266 148.422 13.6562 148.117 13.5156C147.812 13.3711 147.572 13.1523 147.396 12.8594C147.221 12.5664 147.133 12.1953 147.133 11.7461C147.133 11.0781 147.381 10.5762 147.877 10.2402C148.377 9.9043 149.131 9.71875 150.139 9.68359L151.264 9.64258V9.30273C151.264 8.85352 151.158 8.5332 150.947 8.3418C150.74 8.15039 150.447 8.05469 150.068 8.05469C149.744 8.05469 149.43 8.10156 149.125 8.19531C148.82 8.28906 148.523 8.4043 148.234 8.54102L147.789 7.56836C148.105 7.40039 148.465 7.26367 148.867 7.1582C149.273 7.05273 149.695 7 150.133 7ZM151.258 10.5098L150.42 10.5391C149.732 10.5625 149.25 10.6797 148.973 10.8906C148.695 11.1016 148.557 11.3906 148.557 11.7578C148.557 12.0781 148.652 12.3125 148.844 12.4609C149.035 12.6055 149.287 12.6777 149.6 12.6777C150.076 12.6777 150.471 12.543 150.783 12.2734C151.1 12 151.258 11.5996 151.258 11.0723V10.5098ZM161.881 7C162.607 7 163.154 7.1875 163.521 7.5625C163.893 7.9375 164.078 8.53906 164.078 9.36719V13.6094H162.701V9.61328C162.701 9.12109 162.605 8.75 162.414 8.5C162.223 8.25 161.932 8.125 161.541 8.125C160.994 8.125 160.6 8.30078 160.357 8.65234C160.119 9 160 9.50586 160 10.1699V13.6094H158.623V9.61328C158.623 9.28516 158.58 9.01172 158.494 8.79297C158.412 8.57031 158.285 8.4043 158.113 8.29492C157.941 8.18164 157.725 8.125 157.463 8.125C157.084 8.125 156.781 8.21094 156.555 8.38281C156.332 8.55469 156.172 8.80859 156.074 9.14453C155.977 9.47656 155.928 9.88477 155.928 10.3691V13.6094H154.551V7.12305H155.623L155.816 7.99609H155.893C156.025 7.76953 156.189 7.58398 156.385 7.43945C156.584 7.29102 156.805 7.18164 157.047 7.11133C157.289 7.03711 157.541 7 157.803 7C158.287 7 158.695 7.08594 159.027 7.25781C159.359 7.42578 159.607 7.68359 159.771 8.03125H159.877C160.08 7.67969 160.363 7.41992 160.727 7.25195C161.09 7.08398 161.475 7 161.881 7ZM170.359 11.7578C170.359 12.1836 170.256 12.543 170.049 12.8359C169.842 13.1289 169.539 13.3516 169.141 13.5039C168.746 13.6523 168.262 13.7266 167.688 13.7266C167.234 13.7266 166.844 13.6934 166.516 13.627C166.191 13.5645 165.885 13.4668 165.596 13.334V12.1445C165.904 12.2891 166.25 12.4141 166.633 12.5195C167.02 12.625 167.385 12.6777 167.729 12.6777C168.182 12.6777 168.508 12.6074 168.707 12.4668C168.906 12.3223 169.006 12.1309 169.006 11.8926C169.006 11.752 168.965 11.627 168.883 11.5176C168.805 11.4043 168.656 11.2891 168.438 11.1719C168.223 11.0508 167.906 10.9062 167.488 10.7383C167.078 10.5742 166.732 10.4102 166.451 10.2461C166.17 10.082 165.957 9.88477 165.812 9.6543C165.668 9.41992 165.596 9.12109 165.596 8.75781C165.596 8.18359 165.822 7.74805 166.275 7.45117C166.732 7.15039 167.336 7 168.086 7C168.484 7 168.859 7.04102 169.211 7.12305C169.566 7.20117 169.914 7.31641 170.254 7.46875L169.82 8.50586C169.527 8.37695 169.232 8.27148 168.936 8.18945C168.643 8.10352 168.344 8.06055 168.039 8.06055C167.684 8.06055 167.412 8.11523 167.225 8.22461C167.041 8.33398 166.949 8.49023 166.949 8.69336C166.949 8.8457 166.994 8.97461 167.084 9.08008C167.174 9.18555 167.328 9.29102 167.547 9.39648C167.77 9.50195 168.078 9.63281 168.473 9.78906C168.859 9.9375 169.193 10.0938 169.475 10.2578C169.76 10.418 169.979 10.6152 170.131 10.8496C170.283 11.084 170.359 11.3867 170.359 11.7578Z" fill="#C01818"/>
</svg>
